<svg width="27" height="30" viewBox="0 0 27 30" fill="none" xmlns="http://www.w3.org/2000/svg">
<path d="M7.29159 14.5833C6.48617 14.5833 5.83325 15.2362 5.83325 16.0416C5.83325 16.847 6.48617 17.4999 7.29159 17.4999V16.0416V14.5833ZM16.0416 17.4999C16.847 17.4999 17.4999 16.847 17.4999 16.0416C17.4999 15.2362 16.847 14.5833 16.0416 14.5833V16.0416V17.4999ZM7.29159 8.74992C6.48617 8.74992 5.83325 9.40284 5.83325 10.2083C5.83325 11.0137 6.48617 11.6666 7.29158 11.6666L7.29159 10.2083L7.29159 8.74992ZM13.1249 11.6666C13.9303 11.6666 14.5833 11.0137 14.5833 10.2083C14.5833 9.40284 13.9303 8.74992 13.1249 8.74992V10.2083V11.6666ZM7.29159 20.4166C6.48617 20.4166 5.83325 21.0695 5.83325 21.8749C5.83325 22.6803 6.48617 23.3333 7.29159 23.3333V21.8749V20.4166ZM13.1249 23.3333C13.9303 23.3333 14.5833 22.6803 14.5833 21.8749C14.5833 21.0695 13.9303 20.4166 13.1249 20.4166V21.8749V23.3333ZM2.73966 26.4268L1.70846 27.458L1.70846 27.458L2.73966 26.4268ZM20.5935 26.4268L21.6247 27.458V27.458L20.5935 26.4268ZM21.8749 1.45825C21.8749 0.652837 21.222 -8.14199e-05 20.4166 -8.14199e-05C19.6112 -8.14199e-05 18.9583 0.652837 18.9583 1.45825H20.4166H21.8749ZM18.9583 10.2083C18.9583 11.0137 19.6112 11.6666 20.4166 11.6666C21.222 11.6666 21.8749 11.0137 21.8749 10.2083H20.4166H18.9583ZM24.7916 7.29159C25.597 7.29159 26.2499 6.63867 26.2499 5.83325C26.2499 5.02784 25.597 4.37492 24.7916 4.37492V5.83325V7.29159ZM16.0416 4.37492C15.2362 4.37492 14.5833 5.02784 14.5833 5.83325C14.5833 6.63867 15.2362 7.29158 16.0416 7.29158V5.83325V4.37492ZM7.29159 16.0416V17.4999H16.0416V16.0416V14.5833L7.29159 14.5833V16.0416ZM7.29159 10.2083L7.29158 11.6666L13.1249 11.6666V10.2083V8.74992L7.29159 8.74992L7.29159 10.2083ZM7.29159 21.8749V23.3333H13.1249V21.8749V20.4166H7.29159V21.8749ZM13.1249 27.7083V26.2499H10.2083V27.7083V29.1666H13.1249V27.7083ZM1.45825 18.9583H2.91659V10.2083H1.45825H-8.14199e-05V18.9583H1.45825ZM21.8749 16.0416H20.4166V18.9583H21.8749H23.3333V16.0416H21.8749ZM10.2083 27.7083V26.2499C8.10463 26.2499 6.67362 26.2468 5.60201 26.1027C4.57235 25.9643 4.09544 25.7202 3.77086 25.3956L2.73966 26.4268L1.70846 27.458C2.66529 28.4149 3.86028 28.8115 5.21337 28.9934C6.5245 29.1697 8.18708 29.1666 10.2083 29.1666V27.7083ZM1.45825 18.9583H-8.14199e-05C-8.14199e-05 20.9794 -0.00317848 22.642 0.173099 23.9531C0.355016 25.3062 0.751637 26.5012 1.70846 27.458L2.73966 26.4268L3.77086 25.3956C3.44627 25.0711 3.20219 24.5942 3.06376 23.5645C2.91968 22.4929 2.91659 21.0619 2.91659 18.9583H1.45825ZM13.1249 27.7083V29.1666C15.1461 29.1666 16.8087 29.1697 18.1198 28.9934C19.4729 28.8115 20.6679 28.4149 21.6247 27.458L20.5935 26.4268L19.5623 25.3956C19.2377 25.7202 18.7608 25.9643 17.7312 26.1027C16.6595 26.2468 15.2285 26.2499 13.1249 26.2499V27.7083ZM21.8749 18.9583H20.4166C20.4166 21.0619 20.4135 22.4929 20.2694 23.5645C20.131 24.5942 19.8869 25.0711 19.5623 25.3956L20.5935 26.4268L21.6247 27.458C22.5815 26.5012 22.9782 25.3062 23.1601 23.9531C23.3363 22.642 23.3333 20.9794 23.3333 18.9583H21.8749ZM1.45825 10.2083H2.91659C2.91659 8.10463 2.91968 6.67362 3.06376 5.60201C3.20219 4.57235 3.44627 4.09544 3.77086 3.77086L2.73966 2.73966L1.70846 1.70846C0.751637 2.66529 0.355016 3.86028 0.173099 5.21337C-0.00317848 6.5245 -8.14199e-05 8.18708 -8.14199e-05 10.2083H1.45825ZM10.2083 1.45825V-8.14199e-05C8.18708 -8.14199e-05 6.5245 -0.00317848 5.21337 0.173099C3.86028 0.355016 2.66529 0.751637 1.70846 1.70846L2.73966 2.73966L3.77086 3.77086C4.09544 3.44627 4.57235 3.20219 5.60201 3.06376C6.67362 2.91968 8.10463 2.91659 10.2083 2.91659V1.45825ZM20.4166 1.45825H18.9583V10.2083H20.4166H21.8749V1.45825H20.4166ZM24.7916 5.83325V4.37492L16.0416 4.37492V5.83325V7.29158L24.7916 7.29159V5.83325Z" fill="black"/>
</svg>
