<svg width="21" height="25" viewBox="0 0 21 25" fill="none" xmlns="http://www.w3.org/2000/svg">
<path d="M16.6763 6.5C16.6763 10.0899 13.7662 13 10.1763 13C6.58646 13 3.67631 10.0899 3.67631 6.5C3.67631 2.91015 6.58646 0 10.1763 0C13.7662 0 16.6763 2.91015 16.6763 6.5Z" fill="black"/>
<path d="M19.6029 22.9088C20.1786 22.781 20.5232 22.1821 20.2663 21.6514C19.5436 20.1586 18.3474 18.8468 16.7938 17.8598C14.8953 16.6537 12.5693 16 10.1763 16C7.78337 16 5.45729 16.6537 3.55884 17.8598C2.00522 18.8468 0.809052 20.1586 0.0863229 21.6514C-0.170616 22.1821 0.174047 22.781 0.749688 22.9087L1.51313 23.0781C7.21922 24.344 13.1334 24.344 18.8395 23.0781L19.6029 22.9088Z" fill="black"/>
</svg>
