<svg width="12" height="12" viewBox="0 0 12 12" fill="none" xmlns="http://www.w3.org/2000/svg">
<path d="M5.88682 3.11706C6.62053 4.24711 7.59179 5.20934 8.73447 5.9364L4.31455 10.3563C3.88953 10.7813 3.6772 10.9939 3.41611 11.1337C3.15502 11.2734 2.86005 11.3322 2.27061 11.4501L0.652442 11.7743C0.319832 11.8408 0.1533 11.8738 0.0586924 11.7792C-0.0356935 11.6845 -0.00290455 11.5178 0.0635752 11.1854L0.387794 9.56726C0.505684 8.97781 0.564465 8.68285 0.7042 8.42175C0.84393 8.16073 1.05659 7.94827 1.48154 7.52331L5.88682 3.11706Z" fill="black"/>
<path d="M8.421 0.583861C9.2016 -0.19462 10.4656 -0.19462 11.2462 0.583861L11.255 0.59265C12.0331 1.37321 12.0331 2.63635 11.255 3.41687L10.1925 4.47742C8.99864 3.8154 8.01322 2.83968 7.3419 1.66199L8.421 0.583861Z" fill="black"/>
</svg>
