<svg width="29" height="25" viewBox="0 0 29 25" fill="none" xmlns="http://www.w3.org/2000/svg">
<path d="M3.6001 20.1001H9.6001C12.0854 20.1001 14.1001 22.1148 14.1001 24.6001V9.6001C14.1001 5.35746 14.1001 3.23614 12.7821 1.91812C11.4641 0.600098 9.34274 0.600098 5.1001 0.600098H3.6001C2.18588 0.600098 1.47878 0.600098 1.03944 1.03944C0.600098 1.47878 0.600098 2.18588 0.600098 3.6001V17.1001C0.600098 18.5143 0.600098 19.2214 1.03944 19.6608C1.47878 20.1001 2.18588 20.1001 3.6001 20.1001Z" fill="black"/>
<path d="M24.6001 20.1001H18.6001C16.1148 20.1001 14.1001 22.1148 14.1001 24.6001V9.6001C14.1001 5.35746 14.1001 3.23614 15.4181 1.91812C16.7361 0.600098 18.8575 0.600098 23.1001 0.600098H24.6001C26.0143 0.600098 26.7214 0.600098 27.1608 1.03944C27.6001 1.47878 27.6001 2.18588 27.6001 3.6001V17.1001C27.6001 18.5143 27.6001 19.2214 27.1608 19.6608C26.7214 20.1001 26.0143 20.1001 24.6001 20.1001Z" fill="black"/>
<path d="M14.1001 9.6001V24.6001M14.1001 9.6001C14.1001 5.35746 14.1001 3.23614 12.7821 1.91812C11.4641 0.600098 9.34274 0.600098 5.1001 0.600098H3.6001C2.18588 0.600098 1.47878 0.600098 1.03944 1.03944C0.600098 1.47878 0.600098 2.18588 0.600098 3.6001V17.1001C0.600098 18.5143 0.600098 19.2214 1.03944 19.6608C1.47878 20.1001 2.18588 20.1001 3.6001 20.1001H9.6001C12.0854 20.1001 14.1001 22.1148 14.1001 24.6001M14.1001 9.6001C14.1001 5.35746 14.1001 3.23614 15.4181 1.91812C16.7361 0.600098 18.8575 0.600098 23.1001 0.600098H24.6001C26.0143 0.600098 26.7214 0.600098 27.1608 1.03944C27.6001 1.47878 27.6001 2.18588 27.6001 3.6001V17.1001C27.6001 18.5143 27.6001 19.2214 27.1608 19.6608C26.7214 20.1001 26.0143 20.1001 24.6001 20.1001H18.6001C16.1148 20.1001 14.1001 22.1148 14.1001 24.6001" stroke="black" stroke-width="1.2"/>
</svg>
