<svg width="46" height="37" viewBox="0 0 46 37" fill="none" xmlns="http://www.w3.org/2000/svg">
<path d="M32.1099 12.459C32.1099 12.459 32.0792 12.8157 32.3104 12.9883C32.3104 12.9883 31.9775 13.3379 32.0613 13.6139C32.145 13.89 32.1786 14.047 32.1786 14.047V14.1361C32.1784 14.1476 32.1817 14.1588 32.1881 14.1683C32.1944 14.1778 32.2035 14.1852 32.2141 14.1894C32.2248 14.1937 32.2364 14.1946 32.2476 14.1921C32.2588 14.1896 32.2689 14.1838 32.2767 14.1754L32.3483 14.104C32.3483 14.104 32.4406 13.8822 32.4585 14.2781C32.4764 14.674 32.4678 15.0329 32.5144 15.162C32.5144 15.162 32.1357 15.4923 32.4428 15.8975C32.6081 16.1187 32.6475 16.2542 32.6482 16.3327C32.6512 16.4214 32.6798 16.5073 32.7305 16.5802L32.83 16.7229V17.0639L32.9317 17.1923L33.0519 17.1096V16.9669C33.0518 16.8257 33.0127 16.6872 32.9388 16.5667L32.9181 16.5331C32.8608 16.4431 32.8289 16.3394 32.8257 16.2328C32.8257 16.1436 32.7864 16.006 32.6239 15.8305C32.6239 15.8305 32.369 15.1121 32.7105 15.4623C32.7105 15.4623 32.8114 15.4987 32.6597 14.9929C32.6597 14.9929 32.8214 14.017 32.5072 13.8422C32.5072 13.8422 32.359 13.7773 32.3039 13.8972C32.3039 13.8972 32.1285 13.5754 32.3225 13.3357C32.5165 13.096 32.5373 13.0411 32.4056 12.8292C32.2738 12.6173 32.3225 12.1486 32.3225 12.1486" fill="#1D1D1B"/>
<path d="M33.5094 12.25L33.4629 12.1602L33.3563 12.1273L33.0148 11.9989C33.1064 12.0363 33.1868 12.0964 33.2483 12.1736C33.3099 12.2508 33.3505 12.3425 33.3663 12.4398C33.3827 12.5331 33.4199 12.6216 33.4751 12.6988C33.6948 13.0048 33.5781 13.0483 33.5781 13.0483L33.4765 13.0091C33.4576 13.002 33.4375 12.9987 33.4173 12.9996C33.3971 13.0004 33.3773 13.0054 33.3591 13.0141C33.3493 13.0188 33.3409 13.0262 33.3351 13.0354C33.3293 13.0446 33.3262 13.0553 33.3262 13.0662V13.0883C33.3264 13.1453 33.3487 13.2 33.3885 13.241L33.5781 13.435C33.901 13.7111 33.8645 14.4195 33.8645 14.4195L33.8394 14.4109C33.8239 14.4056 33.8072 14.4048 33.7913 14.4086C33.7753 14.4124 33.7608 14.4207 33.7495 14.4325C33.7381 14.4443 33.7303 14.459 33.7271 14.4751C33.7239 14.4911 33.7254 14.5077 33.7313 14.5229C33.7701 14.613 33.8148 14.7005 33.8652 14.7847C33.9198 14.8774 33.9545 14.9804 33.9668 15.0872L33.9847 15.2392L33.8523 15.3319C33.8369 15.3428 33.8252 15.3582 33.8186 15.3759C33.8121 15.3936 33.8111 15.4128 33.8158 15.4311V15.4403C33.8206 15.4605 33.832 15.4784 33.8482 15.4914C33.8644 15.5043 33.8845 15.5115 33.9053 15.5117C33.9177 15.5118 33.9301 15.5093 33.9416 15.5044C33.953 15.4995 33.9633 15.4922 33.9718 15.4832L34.0091 15.4446L34.1794 15.5952C34.191 15.6053 34.205 15.6122 34.2201 15.6151C34.2352 15.618 34.2508 15.6167 34.2653 15.6116C34.2823 15.6057 34.297 15.5948 34.3074 15.5802C34.3178 15.5656 34.3234 15.5481 34.3233 15.5302V15.5017C34.3233 15.4895 34.3207 15.4774 34.3158 15.4663C34.3109 15.4551 34.3037 15.445 34.2947 15.4368L34.0771 15.2413V15.0601C34.079 14.9657 34.0596 14.8721 34.0205 14.7862C34.0025 14.7462 33.9932 14.703 33.9932 14.6592C33.9932 14.6154 34.0025 14.5721 34.0205 14.5322C34.1973 14.5443 34.2295 14.4473 34.2295 14.3753C34.2296 14.3564 34.2228 14.3382 34.2104 14.3239C34.1981 14.3096 34.181 14.3002 34.1622 14.2975C33.9225 14.2583 33.9375 13.9708 33.9375 13.9708C33.9568 13.8181 33.9196 13.4714 33.8945 13.2716C33.8887 13.2252 33.8729 13.1806 33.8482 13.1409C33.8235 13.1011 33.7905 13.0671 33.7514 13.0412C33.7714 12.9996 33.7818 12.954 33.7818 12.9078C33.7818 12.8616 33.7714 12.816 33.7514 12.7744C33.4464 12.544 33.5073 12.2522 33.5073 12.2522" fill="#1D1D1B"/>
<path d="M40.339 21.0827L35.7472 22.3947L36.1151 25.6877C36.1166 25.7001 36.1137 25.7126 36.1068 25.7229C36.0998 25.7333 36.0894 25.7409 36.0774 25.7443C36.0653 25.7476 36.0525 25.7466 36.0411 25.7413C36.0298 25.736 36.0207 25.7269 36.0156 25.7155L35.8338 25.3167L36.1201 27.1844C36.122 27.1974 36.1189 27.2106 36.1115 27.2214C36.104 27.2322 36.0927 27.2398 36.0799 27.2427C36.067 27.2456 36.0536 27.2435 36.0422 27.2369C36.0308 27.2304 36.0223 27.2197 36.0185 27.2072L34.6448 22.7093L34.1037 22.8641L35.7937 28.8566L36.6806 29.0635L38.7034 28.6768L41.2524 27.683L41.6962 26.9097L40.339 21.0827Z" fill="#1D1D1B"/>
<path d="M20.6151 13.8589C20.9396 13.5662 21.1984 13.2086 21.3746 12.8095C21.5509 12.4103 21.6407 11.9786 21.638 11.5425C21.638 9.86243 20.3396 8.50128 18.7383 8.50128H14.0255V19.6745H18.9437C20.6144 19.6745 21.9687 18.2548 21.9687 16.5027C21.9729 15.986 21.8521 15.476 21.6164 15.0158C21.3808 14.5555 21.0373 14.1587 20.6151 13.8589ZM16.7892 11.0324H18.0848C18.5243 11.0324 18.8815 11.4747 18.8815 12.0197C18.8815 12.5648 18.5236 13.0071 18.0848 13.0071H16.7892V11.0324ZM18.3711 17.2596H16.7892V15.2878H18.3711C18.8106 15.2878 19.1678 15.7294 19.1678 16.2744C19.1678 16.8195 18.8106 17.2618 18.3711 17.2618V17.2596Z" fill="#1D1D1B"/>
<path d="M28.3838 31.4284H31.5577L29.5398 27.148C30.3988 26.4517 30.9607 25.3367 30.9607 24.0804C30.9607 21.9709 29.3859 20.2602 27.4468 20.2602H23.0604V20.2687L22.9645 20.2602V31.4284H25.7325V27.8978H26.8778L28.3838 31.4284ZM25.8277 22.7392H27.2464C27.8749 22.7392 28.3838 23.3699 28.3838 24.1482C28.3838 24.9265 27.8749 25.5571 27.2464 25.5571H25.8277V22.7392Z" fill="#1D1D1B"/>
<path d="M13.9351 22.811V20.2207H21.9478V31.4652H13.9351V28.8749H19.0853V27.0065H14.86V24.4162H19.0853V22.811H13.9351Z" fill="#1D1D1B"/>
<path d="M34.3368 16.4151C34.5966 16.1547 35.112 15.8301 35.9115 16.1297C35.9115 16.1297 36.7526 16.4964 36.7519 17.4067C36.7518 17.4187 36.756 17.4304 36.7638 17.4396C36.7716 17.4487 36.7825 17.4548 36.7944 17.4566C36.8063 17.4584 36.8185 17.4559 36.8287 17.4495C36.8389 17.4431 36.8465 17.4332 36.8499 17.4217C36.9466 17.1092 37.0096 16.6134 36.676 16.1533C36.5182 15.934 36.3019 15.7633 36.0516 15.6604C35.8013 15.5575 35.5271 15.5266 35.2601 15.5711C34.9065 15.6325 34.5107 15.8308 34.258 16.3559C34.2527 16.3663 34.2513 16.3783 34.2539 16.3897C34.2566 16.4011 34.2632 16.4112 34.2725 16.4183C34.2819 16.4254 34.2935 16.4289 34.3052 16.4283C34.317 16.4277 34.3281 16.423 34.3368 16.4151Z" fill="#1D1D1B"/>
<path d="M32.6169 19.4617C32.615 19.4496 32.6177 19.4373 32.6244 19.427C32.6311 19.4168 32.6413 19.4093 32.6531 19.406C32.6649 19.4028 32.6775 19.404 32.6885 19.4094C32.6995 19.4147 32.7082 19.424 32.7128 19.4353C32.8631 19.7699 33.2325 20.3627 33.9962 20.4847C34.9454 20.6352 35.7521 20.128 36.0184 19.2177C36.0213 19.2056 36.0286 19.1949 36.039 19.1879C36.0493 19.1809 36.0619 19.178 36.0743 19.1798C36.0867 19.1816 36.098 19.1879 36.1059 19.1976C36.1138 19.2072 36.1178 19.2195 36.1172 19.232C36.105 19.8091 35.9024 20.8307 34.6655 21.0368C33.201 21.2808 32.682 20.0545 32.6169 19.4617Z" fill="#1D1D1B"/>
<path d="M36.7859 19.7091C36.7684 19.7042 36.7533 19.6932 36.7432 19.6781C36.7332 19.663 36.7289 19.6449 36.7311 19.6269C36.7334 19.6089 36.742 19.5924 36.7555 19.5802C36.7689 19.5681 36.7863 19.5611 36.8045 19.5607C37.249 19.555 37.992 19.4936 38.4022 18.8359C38.8703 18.084 38.5188 17.3962 38.2382 17.0032C38.2281 16.9882 38.2236 16.9702 38.2256 16.9523C38.2277 16.9344 38.236 16.9178 38.2492 16.9055C38.2624 16.8932 38.2796 16.886 38.2977 16.8852C38.3158 16.8844 38.3335 16.8901 38.3478 16.9011C38.8366 17.2964 39.43 18.049 38.7944 19.1013C38.7966 19.1013 38.1523 20.1071 36.7859 19.7091Z" fill="#1D1D1B"/>
<path d="M35.7806 19.9113C35.7739 19.9038 35.7702 19.8939 35.7705 19.8838C35.7707 19.8737 35.7747 19.8641 35.7818 19.8568C35.7889 19.8496 35.7985 19.8453 35.8086 19.8448C35.8188 19.8443 35.8287 19.8477 35.8365 19.8542C36.3576 20.2823 37.379 20.9557 38.4177 20.6725C38.8084 20.5633 39.1639 20.3546 39.4492 20.0669C39.7345 19.7792 39.9397 19.4224 40.0447 19.0317C40.2444 18.3005 40.0933 17.1926 38.9316 16.258C38.9157 16.2478 38.9042 16.2319 38.8995 16.2136C38.8948 16.1953 38.8972 16.1759 38.9063 16.1593C38.9153 16.1427 38.9303 16.1301 38.9483 16.1241C38.9663 16.118 38.9859 16.119 39.0032 16.1268C39.6266 16.3044 40.9781 17.1191 40.1077 20.0882C40.1041 20.0925 37.9445 22.4374 35.7806 19.9113Z" fill="#1D1D1B"/>
<path d="M38.9022 15.8522C38.9466 15.9171 39.0518 15.8614 39.0332 15.7844C38.9664 15.5541 38.8371 15.3468 38.6595 15.1851C38.4861 15.0304 38.2679 14.9346 38.0363 14.9115C37.8047 14.8884 37.5718 14.9393 37.3711 15.0567C37.1113 15.203 36.8507 15.4462 36.8328 15.8415C36.8322 15.8573 36.8366 15.8729 36.8454 15.8861C36.8542 15.8993 36.867 15.9094 36.8818 15.915C36.8967 15.9206 36.913 15.9214 36.9283 15.9173C36.9437 15.9132 36.9573 15.9044 36.9674 15.8921C36.9674 15.8921 37.2816 15.1837 37.9695 15.2622C38.5328 15.3235 38.9022 15.8522 38.9022 15.8522Z" fill="#1D1D1B"/>
<path d="M44.4421 25.3393C44.4421 25.3393 45.4814 23.3097 44.9274 21.4157C44.9274 21.4157 44.0405 18.8696 43.4722 18.3409C43.4722 18.3409 43.1264 18.0741 42.5717 18.2396C42.0169 18.4051 41.2739 18.602 40.6877 18.1854C40.6877 18.1854 40.3684 18.0113 40.2847 17.5113L40.2281 18.2418L40.1043 20.0923L41.3491 26.7626C41.364 26.8423 41.3685 26.9235 41.3627 27.0044C41.3502 27.176 41.2914 27.3411 41.1924 27.4821C41.0935 27.6231 40.9582 27.7349 40.8008 27.8055C39.979 28.1736 38.2955 28.8942 36.6363 29.0133C36.4924 29.0244 36.3486 28.9916 36.224 28.9191C36.0661 28.828 35.9495 28.6799 35.8983 28.5054C35.5096 27.1735 33.8274 21.3807 33.8031 20.7829L33.4567 20.6859V20.9619L35.5482 28.6252C35.5482 28.6252 35.6871 29.3436 36.4909 29.2744C36.4909 29.2744 39.0263 29.1225 41.4643 27.8797C41.4643 27.8797 42.5724 27.8662 41.9353 25.9464L40.6054 20.2571C40.6054 20.2571 40.4808 19.1121 41.4507 18.7533C41.4507 18.7533 42.5173 18.4594 42.6561 18.6477C42.6561 18.6477 41.5474 18.8617 41.2704 19.3882C41.2704 19.3882 42.0184 18.9045 42.8358 18.9737C42.8358 18.9737 43.5566 18.7932 43.9303 20.2578C44.3039 21.7224 44.7341 23.4346 43.8472 25.0497C43.8472 25.0497 44.2051 24.9534 44.5573 23.8883C44.5566 23.8876 44.8028 24.1244 44.4421 25.3393Z" fill="#1D1D1B"/>
<path d="M36.1385 30.2319C36.1385 30.2319 40.1563 28.8601 41.7454 28.6304C41.2443 28.8902 40.722 29.1074 40.1842 29.2795C39.1785 29.6134 37.7541 29.9516 36.1385 30.2319Z" fill="#1D1D1B"/>
<path d="M44.1511 22.7369L44.1332 22.413C44.1083 21.9584 44.0364 21.5075 43.9185 21.0676L43.7753 20.5254C43.6857 20.1903 43.5447 19.8709 43.3573 19.5787L43.3165 19.5152C43.2254 19.3732 43.085 19.2695 42.9221 19.2241C42.7085 19.1635 42.4817 19.167 42.27 19.2341L41.6702 19.4225C41.42 19.5012 41.2073 19.6681 41.0718 19.8919C40.9688 20.0615 40.9371 20.2648 40.9837 20.4576L42.1433 25.2823C42.1621 25.3618 42.1972 25.4367 42.2464 25.502C42.3324 25.6176 42.4566 25.6992 42.5971 25.7324C42.7505 25.7695 42.9124 25.7468 43.0495 25.6689L43.1419 25.6162C43.2408 25.5603 43.3221 25.478 43.3766 25.3786C43.7432 24.7102 43.9958 23.9858 44.1239 23.2348C44.1515 23.0704 44.1606 22.9034 44.1511 22.7369ZM43.2922 24.9406L43.2134 25.1432C43.1559 25.2901 43.046 25.4107 42.9049 25.482C42.8804 25.4947 42.8533 25.5016 42.8256 25.5021C42.798 25.5027 42.7706 25.4968 42.7456 25.4851C42.7206 25.4734 42.6987 25.456 42.6815 25.4345C42.6643 25.4129 42.6523 25.3877 42.6465 25.3608L41.5356 20.1444C41.5156 20.0481 41.5344 19.9478 41.5879 19.8651C41.6415 19.7825 41.7256 19.7242 41.8219 19.7028L42.2586 19.6037C42.4283 19.5653 42.6033 19.5564 42.7761 19.5773C42.8674 19.5879 42.9538 19.6244 43.025 19.6824C43.0961 19.7404 43.1491 19.8176 43.1777 19.9047C43.1777 19.9047 44.1354 22.2304 43.683 23.7892L43.2922 24.9406Z" fill="#1D1D1B"/>
<path d="M30.718 11.0743C30.8413 11.057 30.9584 11.0101 31.0595 10.9377C31.1605 10.8652 31.2423 10.7694 31.2978 10.6584C31.4232 10.392 31.4858 10.1007 31.4811 9.80658C31.4811 9.23586 31.2706 8.75432 30.98 8.57597C30.905 8.52946 30.8185 8.50475 30.7302 8.50463H22.9645V19.7456H30.9814V17.1553H25.8277V15.2876H30.0509V12.6965H25.8277V11.0914H30.5978L30.718 11.0743ZM30.5978 10.9523V8.66086C30.627 8.65329 30.6571 8.64921 30.6873 8.64874C30.7345 8.64804 30.7814 8.65691 30.825 8.67481C30.8687 8.69272 30.9083 8.71928 30.9414 8.75289C31.164 8.94052 31.2842 9.34216 31.2842 9.80087C31.2842 10.2596 31.1991 10.6191 30.9764 10.8068C30.8737 10.902 30.7381 10.9541 30.5978 10.9523Z" fill="#1D1D1B"/>
<path d="M33.6385 8.34703L33.6994 6.97517C33.7007 6.94809 33.6938 6.92125 33.6796 6.8981C33.6655 6.87496 33.6447 6.85657 33.6199 6.84533L33.3801 6.73618L33.685 5.79736L33.4538 5.5762L34.3779 3.31189C35.9942 0.375557 34.1746 0.0531031 34.1746 0.0531031C32.4102 -0.388488 32.6507 2.06916 32.6507 2.06916L32.8261 5.48418L32.5398 5.55552V6.65129H32.1539C32.1379 6.65126 32.1224 6.65691 32.1102 6.66724C32.098 6.67757 32.0899 6.6919 32.0874 6.70765L32.0158 7.17492C32.014 7.19176 32.0183 7.20868 32.0278 7.22266C32.0374 7.23664 32.0517 7.24678 32.068 7.25126L32.2892 7.28978V7.39393L32.0466 7.44173C32.0293 7.44501 32.0138 7.45455 32.0031 7.4685C31.9924 7.48245 31.9872 7.49984 31.9886 7.51735L32.0358 8.26356C32.0367 8.27959 32.043 8.29486 32.0536 8.3069C32.0643 8.31893 32.0787 8.32704 32.0945 8.32991L32.363 8.38341C32.529 8.62311 32.363 8.76936 32.363 8.76936L31.519 8.88136C31.2786 8.91002 31.0348 8.8884 30.8032 8.81787C30.659 8.78009 30.5099 8.76398 30.3609 8.77007L30.5083 10.7126C30.8598 10.3995 31.3401 10.3902 31.3401 10.3902L31.4503 10.3995C32.199 10.8689 32.1067 12.4797 32.1067 12.4797C32.7896 11.762 33.5094 12.25 33.5094 12.25L33.2133 11.237C32.7609 9.8102 33.9062 9.78309 33.9062 9.78309C34.6635 9.79023 34.5898 9.02832 34.5898 9.02832C34.5626 8.0153 33.6385 8.34703 33.6385 8.34703ZM33.5712 6.94521V7.2698L33.262 7.24412L33.2448 6.89884L33.5712 6.94521ZM34.292 2.86745C35.073 0.855672 34.418 0.469726 34.2112 0.253567C34.2073 0.249429 34.2048 0.244121 34.2043 0.238471C34.2037 0.232822 34.2051 0.227149 34.2081 0.222341C34.2111 0.217532 34.2157 0.213857 34.221 0.211892C34.2264 0.209926 34.2322 0.20978 34.2376 0.211477C35.685 0.671616 34.3285 3.24269 34.3285 3.24269L33.4145 5.52555L33.2477 5.47562L34.292 2.86745ZM33.3844 5.73101L33.5712 5.80235L33.2992 6.67198L33.1417 6.64202L33.3844 5.73101ZM32.9836 10.7526C32.9952 10.9266 33.0286 11.0984 33.083 11.2641L33.3565 12.0424C33.2264 11.9684 33.0753 11.9397 32.927 11.9611L32.7509 11.374C32.6909 11.1911 32.6579 11.0006 32.6529 10.8082C32.6407 10.0164 33.1417 9.89082 33.3565 9.86228C33.1274 9.98142 32.9549 10.2475 32.9836 10.7526ZM33.2777 8.15798L33.2448 7.45814H33.5641L33.5877 8.15798H33.2777ZM33.6092 8.99265C33.5948 8.70729 33.7523 8.46474 33.9671 8.42194V8.6866C33.9159 8.71727 33.8744 8.76159 33.8472 8.81453C33.82 8.86748 33.8082 8.92695 33.8132 8.98623C33.8147 9.03958 33.8293 9.09174 33.8558 9.13813C33.8822 9.18453 33.9197 9.22374 33.9649 9.25233V9.51771C33.7724 9.46278 33.6221 9.24876 33.6092 8.99265ZM34.1954 9.50273L34.1882 9.26018C34.2415 9.23039 34.285 9.18596 34.3135 9.13219C34.3421 9.07842 34.3545 9.0176 34.3493 8.95698C34.3484 8.89824 34.3313 8.84088 34.2998 8.79118C34.2684 8.74148 34.2238 8.70135 34.1711 8.67519L34.1639 8.43335C34.3443 8.49756 34.4817 8.70087 34.4946 8.94842C34.5075 9.19597 34.3801 9.42854 34.1954 9.50273Z" fill="#1D1D1B"/>
<path d="M12.0885 8.38204L12.6146 9.02409C11.8358 10.3049 11.1257 11.174 10.4844 11.6315C9.84299 12.0891 9.03008 12.3174 8.04561 12.3164C7.51449 12.3164 6.05545 12.1604 3.66848 11.8484C3.0004 11.7533 2.48717 11.6855 2.1288 11.6451C2.1109 11.8327 2.09014 12.1138 2.06437 12.4883C1.8587 15.1117 1.67903 17.2519 1.52537 18.9089C2.22638 18.1261 2.99205 17.5456 3.82238 17.1675C4.67666 16.7825 5.6049 16.5877 6.54243 16.5968C8.47605 16.5968 10.0205 17.2474 11.1758 18.5486C12.3311 19.8499 12.9088 21.5884 12.9088 23.7643C12.9088 26.0856 12.2626 27.9436 10.9704 29.338C9.67812 30.7325 7.95876 31.4292 5.81231 31.4283C4.14211 31.4283 2.75584 30.9289 1.6535 29.9301C0.551168 28.9314 0 27.7081 0 26.2604C0 25.4995 0.141251 24.8879 0.423755 24.4256C0.706258 23.9633 1.07346 23.7317 1.52537 23.7307C1.71147 23.7269 1.89562 23.769 2.06138 23.8534C2.22713 23.9378 2.36932 24.0619 2.47524 24.2144C2.71384 24.5378 2.83314 24.9751 2.83314 25.5263C2.83081 25.9247 2.76361 26.3201 2.63415 26.697C2.49019 27.1156 2.29395 27.5144 2.05006 27.8841C2.27817 28.5576 2.7335 29.1314 3.3385 29.5078C3.97859 29.917 4.72556 30.1289 5.48591 30.117C6.82207 30.117 7.87883 29.568 8.65619 28.4698C9.43355 27.3717 9.82295 25.8752 9.82438 23.9804C9.82438 22.1798 9.44262 20.772 8.6791 19.7571C7.91558 18.7422 6.86144 18.2357 5.51669 18.2376C4.74219 18.2348 3.97933 18.4254 3.2977 18.7919C2.6048 19.1614 1.88184 19.7623 1.12882 20.5946L0.448808 19.7985C0.577175 18.4245 0.705303 16.9204 0.833193 15.2863C0.961083 13.6521 1.12381 11.414 1.32137 8.5718C3.77752 8.86382 5.64505 9.06951 6.92395 9.18889C8.20285 9.30826 9.09474 9.36819 9.59962 9.36866C10.0467 9.37906 10.4915 9.30198 10.9088 9.1418C11.2758 8.98914 11.669 8.73588 12.0885 8.38204Z" fill="#1D1D1B"/>
<path d="M1.22043 32.8437H2.18533C2.30825 32.843 2.43004 32.8673 2.54323 32.9151C2.65077 32.9609 2.7481 33.0276 2.82955 33.1112C2.91101 33.1939 2.97674 33.2906 3.02353 33.3966C3.0715 33.5081 3.09587 33.6284 3.09511 33.7497V34.4681H1.97059V33.9687H1.44089V35.8678H1.97059V35.2093H3.09654V36.0875C3.09726 36.21 3.07291 36.3314 3.02496 36.4442C2.97897 36.5514 2.91206 36.6484 2.82812 36.7296C2.74521 36.8108 2.64819 36.8763 2.5418 36.9229C2.42987 36.9707 2.30925 36.995 2.18747 36.9942H1.22043C1.09964 36.9944 0.980065 36.9702 0.868968 36.9229C0.649328 36.8296 0.474401 36.6553 0.380791 36.4364C0.333378 36.3256 0.309025 36.2065 0.309211 36.0861V33.7512C0.308452 33.6298 0.33282 33.5096 0.380791 33.398C0.427848 33.2914 0.494627 33.1946 0.577637 33.1127C0.661163 33.0292 0.760086 32.9626 0.868968 32.9165C0.979956 32.8687 1.09953 32.844 1.22043 32.8437ZM0.458098 36.0897C0.457126 36.1917 0.477608 36.2928 0.518225 36.3864C0.596281 36.5686 0.742329 36.7134 0.925516 36.7902C1.01883 36.8295 1.11913 36.8496 1.22043 36.8494H2.18533C2.28662 36.8496 2.38692 36.8295 2.48024 36.7902C2.57122 36.7516 2.65404 36.6962 2.72433 36.6268C2.79423 36.5565 2.85074 36.4741 2.89111 36.3836C2.93244 36.2911 2.95366 36.1909 2.95338 36.0897V35.3534H2.11947V36.0183H1.29201V33.8225H2.11947V34.3219H2.95338V33.7512C2.95366 33.6499 2.93244 33.5497 2.89111 33.4572C2.85058 33.3668 2.79409 33.2844 2.72433 33.214C2.6542 33.1446 2.57133 33.0894 2.48024 33.0513C2.38708 33.0115 2.28671 32.9911 2.18533 32.9914H1.22043C1.11715 32.9906 1.01481 33.011 0.91979 33.0513C0.829181 33.0887 0.747121 33.1441 0.678565 33.214C0.611088 33.2839 0.556777 33.3653 0.518225 33.4544C0.477689 33.5481 0.45721 33.6491 0.458098 33.7512V36.0897ZM0.606985 33.7512C0.606414 33.6707 0.62189 33.5909 0.652516 33.5165C0.683142 33.4421 0.728307 33.3745 0.785384 33.3176C0.842462 33.2607 0.910314 33.2157 0.984998 33.1852C1.05968 33.1546 1.13971 33.1392 1.22043 33.1398H2.18533C2.26718 33.1398 2.34821 33.156 2.42369 33.1876C2.49704 33.2178 2.56368 33.2622 2.61982 33.3181C2.67613 33.3745 2.72151 33.4408 2.75367 33.5136C2.78725 33.5883 2.80457 33.6693 2.8045 33.7512V34.1728H2.26263V33.6734H1.14527V36.166H2.26478V35.5018H2.80664V36.0897C2.8072 36.1704 2.79086 36.2503 2.75868 36.3244C2.72719 36.3975 2.68173 36.4639 2.62483 36.5198C2.56747 36.5772 2.49932 36.6228 2.42427 36.6539C2.34922 36.685 2.26875 36.701 2.18747 36.701H1.22043C1.13854 36.7014 1.05744 36.6851 0.982065 36.6532C0.908722 36.623 0.842081 36.5786 0.785952 36.5227C0.729823 36.4667 0.685305 36.4003 0.654943 36.3272C0.622949 36.2521 0.606632 36.1713 0.606985 36.0897V33.7512Z" fill="#1D1D1B"/>
<path d="M3.57896 33.9709V32.8437H5.08214V33.9709H4.89746V34.3604H5.44004V33.9744H5.25536V32.8473H6.76427V33.9744H6.57387V35.8735H6.76427V36.9999H5.25751V35.8699H5.44004V35.484H4.89818V35.8699H5.08214V36.9999H3.57896V35.8699H3.77007V33.9709H3.57896ZM3.72784 32.9914V33.8225H3.91896V36.0183H3.72784V36.8494H4.93898V36.0183H4.7543V35.342H5.59394V36.0183H5.40353V36.8494H6.6204V36.0183H6.43572V33.8225H6.6204V32.9914H5.40353V33.8225H5.59394V34.5031H4.75144V33.8203H4.93898V32.9914H3.72784ZM3.87673 36.701V36.1667H4.06713V33.6741H3.87673V33.1398H4.79582V33.6741H4.60255V34.6536H5.73423V33.6741H5.54956V33.1398H6.4665V33.6741H6.28182V36.1667H6.4665V36.701H5.54956V36.1667H5.73423V35.1936H4.60255V36.1667H4.79582V36.701H3.87673Z" fill="#1D1D1B"/>
<path d="M7.24026 33.751C7.2395 33.6296 7.26387 33.5094 7.31184 33.3979C7.3589 33.2913 7.42567 33.1945 7.50868 33.1125C7.59221 33.029 7.69113 32.9624 7.80002 32.9163C7.91111 32.8691 8.03068 32.8448 8.15147 32.845H9.11638C9.2393 32.8443 9.36108 32.8686 9.47428 32.9163C9.58182 32.9622 9.67914 33.0289 9.7606 33.1125C9.84206 33.1952 9.90779 33.2918 9.95458 33.3979C10.0026 33.5094 10.0269 33.6296 10.0262 33.751V36.0895C10.0269 36.212 10.0025 36.3334 9.95458 36.4462C9.90859 36.5534 9.84167 36.6504 9.75774 36.7316C9.67483 36.8128 9.57781 36.8783 9.47141 36.9249C9.35949 36.9727 9.23886 36.997 9.11709 36.9962H8.15147C8.03068 36.9964 7.91111 36.9722 7.80002 36.9249C7.58038 36.8316 7.40545 36.6573 7.31184 36.4384C7.26443 36.3276 7.24007 36.2085 7.24026 36.0881V33.751ZM7.38915 36.0895C7.38817 36.1915 7.40866 36.2926 7.44927 36.3863C7.52733 36.5685 7.67338 36.7132 7.85656 36.7901C7.94988 36.8294 8.05018 36.8495 8.15147 36.8493H9.11638C9.21767 36.8495 9.31797 36.8294 9.41129 36.7901C9.50227 36.7515 9.58509 36.696 9.65537 36.6267C9.72528 36.5563 9.78179 36.4739 9.82216 36.3834C9.86349 36.2909 9.88471 36.1908 9.88443 36.0895V33.751C9.88471 33.6498 9.86349 33.5496 9.82216 33.4571C9.78162 33.3667 9.72513 33.2843 9.65537 33.2138C9.58525 33.1445 9.50238 33.0893 9.41129 33.0512C9.31813 33.0113 9.21776 32.9909 9.11638 32.9912H8.15147C8.0482 32.9904 7.94585 33.0108 7.85084 33.0512C7.76023 33.0886 7.67817 33.1439 7.60961 33.2138C7.54214 33.2837 7.48783 33.3652 7.44927 33.4542C7.40874 33.5479 7.38826 33.649 7.38915 33.751V36.0895ZM7.53803 33.751C7.53812 33.5888 7.60243 33.4332 7.71698 33.318C7.773 33.2619 7.83968 33.2175 7.91311 33.1874C7.98859 33.1559 8.06962 33.1396 8.15147 33.1396H9.11638C9.19823 33.1396 9.27926 33.1559 9.35474 33.1874C9.42809 33.2177 9.49473 33.262 9.55087 33.318C9.60718 33.3744 9.65256 33.4406 9.68472 33.5135C9.7183 33.5882 9.73562 33.6691 9.73554 33.751V36.0895C9.7361 36.1702 9.71976 36.2502 9.68759 36.3242C9.65609 36.3974 9.61063 36.4638 9.55373 36.5197C9.49638 36.5771 9.42822 36.6226 9.35317 36.6537C9.27812 36.6848 9.19765 36.7009 9.11638 36.7009H8.15147C8.06959 36.7013 7.98849 36.685 7.91311 36.6531C7.8391 36.6228 7.77229 36.5773 7.71698 36.5197C7.66162 36.4631 7.61721 36.3969 7.58599 36.3242C7.55381 36.2502 7.53748 36.1702 7.53803 36.0895V33.751ZM8.07417 33.674V36.1666H9.19368V33.674H8.07417ZM9.05052 33.8223V36.0182H8.22306V33.8223H9.05052ZM8.37481 35.8698H8.9045V33.9707H8.37481V35.8698Z" fill="#1D1D1B"/>
<path d="M10.7003 35.87V33.9709H10.5092V32.8437H12.4548C12.5778 32.8425 12.6997 32.8668 12.8127 32.9151C13.0309 33.0095 13.2046 33.1836 13.298 33.4016C13.3454 33.5123 13.3698 33.6315 13.3696 33.7519V34.6301C13.3689 34.7525 13.3446 34.8736 13.298 34.9868C13.2522 35.1002 13.1865 35.2045 13.104 35.295C13.0232 35.3839 12.926 35.4566 12.8177 35.509C12.7061 35.5625 12.5836 35.5898 12.4598 35.5889H11.8342V35.8678H12.0189V37H10.5092V35.87H10.7003ZM10.8492 33.8225V36.0183H10.6581V36.8495H11.8671V36.0183H11.6824V35.4426H12.4548C12.5592 35.4423 12.6621 35.4179 12.7554 35.3713C12.8474 35.327 12.9294 35.2646 12.9966 35.188C13.064 35.1102 13.1182 35.022 13.157 34.9269C13.1965 34.8316 13.2167 34.7296 13.2164 34.6265V33.7512C13.2171 33.6505 13.1978 33.5506 13.1594 33.4574C13.1211 33.3642 13.0645 33.2795 12.9931 33.2083C12.9243 33.1395 12.8425 33.085 12.7526 33.0478C12.6579 33.0099 12.5568 32.9908 12.4548 32.9914H10.6581V33.8225H10.8492ZM10.9974 36.1667V33.6741H10.8084V33.1398H12.4548C12.5364 33.1397 12.6172 33.156 12.6924 33.1876C12.7668 33.218 12.8346 33.2623 12.8921 33.3182C12.9496 33.3736 12.9951 33.4401 13.026 33.5136C13.0576 33.5888 13.0739 33.6696 13.0739 33.7512V34.6294C13.0731 34.7118 13.0569 34.7933 13.026 34.8698C12.9637 35.0297 12.8451 35.1616 12.6924 35.2408C12.6193 35.2798 12.5377 35.3001 12.4548 35.3H11.5314V36.1667H11.7218V36.7011H10.8084V36.1667H10.9974ZM12.5342 34.7599V33.6741H11.5321V34.7599H12.5342ZM12.3832 33.8225V34.6123H11.6803V33.8225H12.3832ZM11.8292 34.4646H12.24V33.9716H11.8349L11.8292 34.4646Z" fill="#1D1D1B"/>
<path d="M13.9808 35.8699V33.9709H13.7903V32.8437H15.7373C15.8591 32.8428 15.9798 32.8671 16.0917 32.9151C16.1986 32.962 16.2957 33.0285 16.378 33.1112C16.4615 33.1945 16.5281 33.2931 16.5741 33.4016C16.6218 33.5122 16.6462 33.6315 16.6457 33.7519V34.6301C16.6453 34.7525 16.621 34.8736 16.5741 34.9868C16.5286 35.1001 16.4631 35.2045 16.3808 35.2949C16.3001 35.384 16.2029 35.4567 16.0945 35.509C15.9829 35.5626 15.8605 35.5899 15.7366 35.5889H15.1117V35.8678H15.2964V37H13.7932V35.8699H13.9808ZM14.1296 33.8225V36.0183H13.9392V36.8494H15.1482V36.0183H14.9635V35.4426H15.7373C15.8417 35.4425 15.9447 35.418 16.038 35.3713C16.1302 35.3273 16.2123 35.2649 16.2792 35.1879C16.3466 35.1101 16.4009 35.0219 16.4402 34.9268C16.4794 34.8315 16.4996 34.7295 16.4997 34.6265V33.7512C16.5004 33.6504 16.481 33.5506 16.4427 33.4574C16.4044 33.3642 16.3478 33.2795 16.2763 33.2083C16.207 33.1392 16.1245 33.0846 16.0337 33.0478C15.939 33.0098 15.8379 32.9907 15.7359 32.9914H13.9392V33.8225H14.1296ZM14.2785 36.1667V33.6741H14.0881V33.1398H15.7345C15.8163 33.1396 15.8974 33.1559 15.9728 33.1876C16.047 33.2183 16.1147 33.2626 16.1725 33.3181C16.2298 33.3738 16.2753 33.4402 16.3064 33.5136C16.3378 33.5889 16.3539 33.6696 16.3536 33.7512V34.6294C16.3531 34.7117 16.337 34.7933 16.3064 34.8698C16.2441 35.0297 16.1255 35.1616 15.9728 35.2407C15.8995 35.2799 15.8176 35.3002 15.7345 35.2999H14.8168V36.1667H15.0072V36.701H14.0881V36.1667H14.2785ZM15.8146 34.7599V33.6741H14.8168V34.7599H15.8146ZM15.6657 33.8225V34.6122H14.9635V33.8225H15.6657ZM15.1124 34.4646H15.5169V33.9716H15.1124V34.4646Z" fill="#1D1D1B"/>
<path d="M18.5599 35.8699H18.7539V33.9709H18.5749V32.8437H21.2126V34.1549H20.1497L20.0781 33.9709H19.8812V34.3604H20.8755V35.4875H19.882V35.8735H20.0666V36.9999H18.5635L18.5599 35.8699ZM19.9199 36.8494V36.0183H19.741L19.7352 35.3356H20.7295V34.5031H19.7331V33.8203H20.1855L20.2513 34.0044H21.0673V32.9914H18.7209V33.8225H18.897V36.0183H18.7066V36.8494H19.9199ZM19.0509 36.1667V33.6741H18.8662V33.1398H20.9206V33.861H20.3544L20.2893 33.6769H19.5842V34.6564H20.5784V35.1965H19.5842L19.5906 36.1695H19.7746V36.7039H18.8577V36.1695L19.0509 36.1667Z" fill="#1D1D1B"/>
<path d="M21.6923 36.9999V35.8699H21.8827V33.9709H21.6923V32.8437H23.1991V33.9709H23.0144V35.8699H23.1991V36.9999H21.6923ZM21.8412 32.9935V33.8246H22.0316V36.0204H21.8412V36.8515H23.0581V36.0183H22.8677V33.8225H23.0581V32.9914L21.8412 32.9935ZM21.9901 36.7032V36.1688H22.1805V33.6741H21.9901V33.1398H22.9056V33.6741H22.7209V36.1667H22.9056V36.701L21.9901 36.7032Z" fill="#1D1D1B"/>
<path d="M23.6807 33.9709V32.8437H25.2111V33.9709H25.1044L25.3721 34.986L25.6341 33.9709H25.5267V32.8437H27.0514V33.9709H26.7951L26.3069 35.8699H26.4129V36.9999H24.3299V35.8699H24.4373L23.9362 33.9709H23.6807ZM23.8296 33.8225H24.0565L24.6291 36.0183H24.4802V36.8494H26.2697V36.0183H26.1208L26.6863 33.8225H26.9068V32.9914H25.6756V33.8225H25.8245L25.3721 35.5731L24.9133 33.8225H25.0622V32.9914H23.8296V33.8225ZM24.9133 33.1398V33.6741H24.7229L25.3721 36.161L26.0163 33.6741H25.8259V33.1398H26.7565V33.6741H26.5718L25.9276 36.1667H26.118V36.701H24.6291V36.1667H24.8195L24.171 33.6741H23.9792V33.1398H24.9133Z" fill="#1D1D1B"/>
<path d="M27.5275 36.9999V35.8699H27.7244V33.9709L27.5275 33.9652V32.8437H30.1839V34.1549H29.1238L29.0522 33.9709H28.8553V34.3604H29.8489V35.4818H28.8539V35.8735H29.0508V35.6894H30.1882L30.166 36.9999H27.5275ZM27.6764 32.9935V33.8246H27.8733V36.0204H27.6764V36.8515H30.0171L30.0407 35.8364H29.2046V36.0204H28.7036V35.332H29.6986V34.4988H28.7036V33.8225H29.1567L29.2218 34.0065H30.035V32.9914L27.6764 32.9935ZM29.8954 33.1419V33.861H29.3299L29.2641 33.6769H28.5604V34.6457H29.5554V35.1858H28.5604V36.1653H29.3478V35.9755H29.8839L29.8718 36.6996H27.8253V36.1653H28.0221V33.6798H27.8253V33.1398L29.8954 33.1419Z" fill="#1D1D1B"/>
<path d="M32.1546 37V35.8699H32.3393V33.9709H32.1546V32.8437H34.0958C34.2176 32.8429 34.3382 32.8672 34.4502 32.9151C34.5571 32.962 34.6543 33.0285 34.7365 33.1112C34.8203 33.1945 34.8871 33.2931 34.9333 33.4016C34.9807 33.5123 35.0051 33.6315 35.0049 33.7519V34.4938C35.006 34.5579 34.9978 34.6218 34.9806 34.6836C34.9648 34.7392 34.9469 34.8006 34.9276 34.8676C34.9553 34.9242 34.9753 34.9841 34.987 35.046C34.9988 35.1105 35.0048 35.1759 35.0049 35.2414V36.0904C35.0056 36.2129 34.9813 36.3343 34.9333 36.4471C34.8873 36.5542 34.8204 36.6512 34.7365 36.7324C34.6523 36.8144 34.5535 36.8799 34.4452 36.9258C34.3319 36.9735 34.2102 36.9977 34.0873 36.9971L32.1546 37ZM32.3035 36.0205V36.8516H34.093C34.194 36.8523 34.2943 36.833 34.3878 36.7948C34.4813 36.7566 34.5662 36.7002 34.6377 36.629C34.7069 36.5597 34.7625 36.4782 34.8016 36.3886C34.8417 36.2948 34.8619 36.1937 34.861 36.0918V35.2429C34.8627 35.1121 34.8299 34.9832 34.7658 34.869C34.7934 34.8114 34.8173 34.7521 34.8374 34.6914C34.8548 34.6275 34.8627 34.5614 34.861 34.4952V33.7533C34.8616 33.6505 34.8414 33.5486 34.8016 33.4537C34.7634 33.3636 34.7077 33.2819 34.6377 33.2133C34.5677 33.1458 34.486 33.0917 34.3965 33.0535C34.3025 33.013 34.2011 32.9926 34.0987 32.9935H32.3092V33.8246H32.4939V36.0205H32.3035ZM32.4524 36.7032V36.1688H32.6406V33.6741H32.4559V33.1398H34.1023C34.1841 33.1398 34.2652 33.156 34.3406 33.1876C34.4147 33.2181 34.4822 33.2624 34.5396 33.3181C34.5973 33.3735 34.6431 33.44 34.6742 33.5136C34.7056 33.5889 34.7217 33.6696 34.7215 33.7512V34.4931C34.7213 34.5505 34.7124 34.6075 34.695 34.6622C34.678 34.7194 34.654 34.7742 34.6234 34.8255L34.599 34.8669L34.6234 34.9083C34.652 34.9596 34.6759 35.0133 34.695 35.0688C34.7134 35.1242 34.7223 35.1823 34.7215 35.2407V36.0897C34.7217 36.1706 34.7044 36.2507 34.6706 36.3244C34.6371 36.3971 34.5908 36.4633 34.5339 36.5198C34.4179 36.6355 34.2607 36.7006 34.0966 36.701L32.4524 36.7032ZM33.1789 34.5723H34.1731V33.6741H33.1789V34.5723ZM33.1789 36.1688H34.1731V35.1045H33.1789V36.1688ZM34.0243 33.8246V34.4239H33.3221V33.8246H34.0243ZM33.3221 36.0205V35.2528H34.0243V36.0183L33.3221 36.0205ZM33.4702 33.973V34.2755H33.8811V33.973H33.4702ZM33.8811 35.8721V35.4034H33.4702V35.8721H33.8811Z" fill="#1D1D1B"/>
<path d="M35.4894 36.9999V35.8699H35.6855V33.9709L35.4894 33.9652V32.8437H38.145V34.1549H37.0849L37.0133 33.9709H36.8172V34.3604H37.8115V35.4818H36.8172V35.8735H37.0133V35.6894H38.1522L38.1271 36.9999H35.4894ZM35.6383 32.9935V33.8246H35.8344V36.0204H35.6383V36.8515H37.9782L38.0019 35.8364H37.1622V36.0204H36.6683V35.332H37.6626V34.4988H36.6683V33.8225H37.1207L37.1858 34.0065H37.9961V32.9914L35.6383 32.9935ZM37.853 33.1419V33.861H37.2875L37.2216 33.6769H36.5194V34.6457H37.5137V35.1858H36.5194V36.1653H37.3111V35.9755H37.8472L37.8351 36.6996H35.79V36.1653H35.9862V33.6798H35.79V33.1398L37.853 33.1419Z" fill="#1D1D1B"/>
<path d="M38.6268 36.9999V35.8699H38.8236V33.9709L38.6268 33.9652V32.8437H41.2831V34.1549H40.223L40.1514 33.9709H39.9553V34.3604H40.9495V35.4818H39.9553V35.8735H40.1514V35.6894H41.2888L41.2652 36.9999H38.6268ZM38.7756 32.9935V33.8246H38.9725V36.0204H38.7756V36.8515H41.1163L41.1399 35.8364H40.2996V36.0204H39.8057V35.332H40.8006V34.4988H39.8064V33.8225H40.2588L40.3239 34.0065H41.1342V32.9914L38.7756 32.9935ZM40.991 33.1419V33.861H40.4256L40.3597 33.6769H39.6554V34.6457H40.6496V35.1858H39.6554V36.1653H40.447V35.9755H40.9832L40.971 36.6996H38.9245V36.1653H39.1214V33.6798H38.9245V33.1398L40.991 33.1419Z" fill="#1D1D1B"/>
<path d="M41.7646 32.8437H43.7123C43.8353 32.843 43.957 32.8673 44.0702 32.9151C44.289 33.0082 44.4637 33.1812 44.5584 33.3987C44.6067 33.5102 44.6311 33.6305 44.63 33.7519V34.6243C44.629 34.6921 44.6221 34.7597 44.6092 34.8262C44.5948 34.9021 44.5737 34.9766 44.5462 35.0488C44.52 35.1195 44.4862 35.1872 44.4453 35.2507C44.4094 35.3066 44.3629 35.355 44.3086 35.3934L44.4453 35.8678H44.7789V37H43.5921L43.5384 36.8394L43.2764 35.902V37H41.7732V35.8699H41.9636V33.9709H41.7789L41.7646 32.8437ZM43.129 36.8494V36.0183H42.9478V35.4426H43.3058L43.6808 36.7981L43.7102 36.8516H44.6336V36.0183H44.3358L44.1389 35.3356C44.1982 35.3007 44.2508 35.2555 44.2943 35.2022C44.3379 35.1492 44.3738 35.0904 44.4009 35.0274C44.4292 34.9626 44.4503 34.8949 44.4639 34.8255C44.4772 34.759 44.4841 34.6914 44.4847 34.6236V33.7512C44.4855 33.6492 44.4652 33.5482 44.4253 33.4544C44.3859 33.3649 44.3304 33.2834 44.2613 33.214C44.1165 33.0709 43.9206 32.9908 43.7166 32.9914H41.9135L41.92 33.8225H42.1046V36.0183H41.9135V36.8494H43.129ZM42.2535 36.1667V33.6741H42.0688L42.0624 33.1398H43.7087C43.7925 33.1394 43.8755 33.1556 43.9528 33.1876C44.0263 33.2177 44.093 33.262 44.149 33.3181C44.2635 33.4333 44.3278 33.589 44.3279 33.7512V34.6236C44.3272 34.6795 44.3212 34.7351 44.31 34.7899C44.298 34.8531 44.2791 34.9148 44.2535 34.9739C44.2293 35.0304 44.1972 35.0832 44.1583 35.1309C44.1246 35.1738 44.0775 35.2041 44.0244 35.2172L43.9464 35.235L44.2205 36.1667H44.4768V36.701H43.8068L43.4138 35.2999H42.7947V36.1667H42.9793V36.701H42.0624V36.1667H42.2535ZM43.7954 34.7599V33.6741H42.7932V34.7599H43.7954ZM42.9478 34.6122V33.8225H43.6501V34.6122H42.9478ZM43.091 34.4638H43.5019V33.9709H43.091V34.4638ZM43.091 35.591V35.8699H43.27L43.1927 35.591H43.091Z" fill="#1D1D1B"/>
</svg>
