<svg width="14" height="18" viewBox="0 0 14 18" fill="none" xmlns="http://www.w3.org/2000/svg">
<path d="M7.5 0.5V4.1C7.5 4.94008 7.5 5.36012 7.66349 5.68099C7.8073 5.96323 8.03677 6.1927 8.31901 6.33651C8.63988 6.5 9.05992 6.5 9.9 6.5H13.5M12.7971 4.79706L9.20294 1.20294C8.94352 0.943516 8.8138 0.813802 8.66243 0.72104C8.52822 0.638797 8.3819 0.57819 8.22885 0.541445C8.05622 0.5 7.87277 0.5 7.50589 0.5H2.9C2.05992 0.5 1.63988 0.5 1.31901 0.66349C1.03677 0.8073 0.8073 1.03677 0.66349 1.31901C0.5 1.63988 0.5 2.05992 0.5 2.9V15.1C0.5 15.9401 0.5 16.3601 0.66349 16.681C0.8073 16.9632 1.03677 17.1927 1.31901 17.3365C1.63988 17.5 2.05992 17.5 2.9 17.5H11.1C11.9401 17.5 12.3601 17.5 12.681 17.3365C12.9632 17.1927 13.1927 16.9632 13.3365 16.681C13.5 16.3601 13.5 15.9401 13.5 15.1V6.49411C13.5 6.12723 13.5 5.94378 13.4586 5.77115C13.4218 5.6181 13.3612 5.47178 13.279 5.33757C13.1862 5.1862 13.0565 5.05648 12.7971 4.79706Z" stroke="#222222"/>
</svg>
