<svg width="18" height="19" viewBox="0 0 18 19" fill="none" xmlns="http://www.w3.org/2000/svg">
<path d="M6 13C6 13.5523 6.44772 14 7 14C7.55228 14 8 13.5523 8 13L7 13L6 13ZM8 10C8 9.44772 7.55228 9 7 9C6.44771 9 6 9.44772 6 10L7 10L8 10ZM10 13C10 13.5523 10.4477 14 11 14C11.5523 14 12 13.5523 12 13H11H10ZM12 10C12 9.44772 11.5523 9 11 9C10.4477 9 10 9.44772 10 10H11H12ZM2.84776 6.23463L1.92388 6.61732L2.84776 6.23463ZM6.38595 0.639419C5.98214 1.01618 5.96021 1.64897 6.33698 2.05278C6.71374 2.4566 7.34653 2.47853 7.75034 2.10176L7.06815 1.37059L6.38595 0.639419ZM10.2497 2.10176C10.6535 2.47853 11.2863 2.4566 11.663 2.05278C12.0398 1.64897 12.0179 1.01618 11.614 0.639418L10.9319 1.37059L10.2497 2.10176ZM7 13L8 13L8 10L7 10L6 10L6 13L7 13ZM11 13H12V10H11H10V13H11ZM0 5V6H18V5V4H0V5ZM11 18V17H7V18V19H11V18ZM3 14H4V8H3H2V14H3ZM15 8H14V14H15H16V8H15ZM18 5V4C17.5477 4 17.1585 3.99946 16.8376 4.02135C16.5078 4.04385 16.1779 4.09336 15.8519 4.22836L16.2346 5.15224L16.6173 6.07612C16.6589 6.05888 16.7458 6.03227 16.9738 6.01671C17.2107 6.00054 17.5204 6 18 6V5ZM15 8H16C16 7.52038 16.0005 7.21074 16.0167 6.97376C16.0323 6.74576 16.0589 6.65893 16.0761 6.61732L15.1522 6.23463L14.2284 5.85195C14.0934 6.17788 14.0439 6.50779 14.0213 6.83762C13.9995 7.15846 14 7.54774 14 8H15ZM16.2346 5.15224L15.8519 4.22836C15.1169 4.53284 14.5328 5.11687 14.2284 5.85195L15.1522 6.23463L16.0761 6.61732C16.1776 6.37229 16.3723 6.17761 16.6173 6.07612L16.2346 5.15224ZM3 8H4C4 7.54774 4.00054 7.15846 3.97865 6.83762C3.95615 6.50779 3.90664 6.17788 3.77164 5.85195L2.84776 6.23463L1.92388 6.61732C1.94112 6.65893 1.96773 6.74576 1.98329 6.97376C1.99946 7.21074 2 7.52038 2 8H3ZM0 5V6C0.479624 6 0.78926 6.00054 1.02624 6.01671C1.25424 6.03227 1.34107 6.05888 1.38268 6.07612L1.76537 5.15224L2.14805 4.22836C1.82212 4.09336 1.49221 4.04385 1.16238 4.02135C0.841535 3.99946 0.452259 4 0 4V5ZM2.84776 6.23463L3.77164 5.85195C3.46716 5.11687 2.88313 4.53284 2.14805 4.22836L1.76537 5.15224L1.38268 6.07612C1.62771 6.17761 1.82239 6.37229 1.92388 6.61732L2.84776 6.23463ZM7 18V17C6.02892 17 5.40121 16.9979 4.9387 16.9357C4.50496 16.8774 4.36902 16.7832 4.29289 16.7071L3.58579 17.4142L2.87868 18.1213C3.38834 18.631 4.01669 18.8297 4.67221 18.9179C5.29896 19.0021 6.08546 19 7 19V18ZM3 14H2C2 14.9145 1.99788 15.701 2.08214 16.3278C2.17027 16.9833 2.36902 17.6117 2.87868 18.1213L3.58579 17.4142L4.29289 16.7071C4.21677 16.631 4.12262 16.495 4.06431 16.0613C4.00212 15.5988 4 14.9711 4 14H3ZM11 18V19C11.9145 19 12.701 19.0021 13.3278 18.9179C13.9833 18.8297 14.6117 18.631 15.1213 18.1213L14.4142 17.4142L13.7071 16.7071C13.631 16.7832 13.495 16.8774 13.0613 16.9357C12.5988 16.9979 11.9711 17 11 17V18ZM15 14H14C14 14.9711 13.9979 15.5988 13.9357 16.0613C13.8774 16.495 13.7832 16.631 13.7071 16.7071L14.4142 17.4142L15.1213 18.1213C15.631 17.6117 15.8297 16.9833 15.9179 16.3278C16.0021 15.701 16 14.9145 16 14H15ZM7.06815 1.37059L7.75034 2.10176C7.70211 2.14677 7.6658 2.16677 7.66128 2.16926C7.65454 2.17297 7.66152 2.16852 7.68749 2.15881C7.74085 2.13884 7.83353 2.11176 7.97087 2.08542L7.78248 1.10332L7.59408 0.12123C7.38213 0.161889 7.17463 0.215287 6.98663 0.285625C6.81588 0.349513 6.58299 0.45558 6.38595 0.639419L7.06815 1.37059ZM7.78248 1.10332L7.97087 2.08542C8.24549 2.03274 8.6087 2 9 2L9 1L9 0C8.51076 3.062e-08 8.01804 0.0399007 7.59408 0.12123L7.78248 1.10332ZM9 1L9 2C9.3913 2 9.75451 2.03274 10.0291 2.08542L10.2175 1.10332L10.4059 0.12123C9.98196 0.0399005 9.48924 -3.06191e-08 9 0L9 1ZM10.2175 1.10332L10.0291 2.08542C10.1665 2.11176 10.2592 2.13884 10.3125 2.1588C10.3385 2.16852 10.3455 2.17297 10.3387 2.16926C10.3342 2.16677 10.2979 2.14677 10.2497 2.10176L10.9319 1.37059L11.614 0.639418C11.417 0.45558 11.1841 0.349513 11.0134 0.285625C10.8254 0.215287 10.6179 0.161888 10.4059 0.12123L10.2175 1.10332Z" fill="black"/>
</svg>
